<?xml version="1.0" encoding="UTF-8" standalone="no"?>
<!-- Created with Inkscape (http://www.inkscape.org/) -->

<svg
   width="600"
   height="512"
   viewBox="0 0 158.75 135.46667"
   version="1.1"
   id="svg5"
   sodipodi:docname="logo-5.svg"
   inkscape:version="1.1.1 (3bf5ae0d25, 2021-09-20, custom)"
   xmlns:inkscape="http://www.inkscape.org/namespaces/inkscape"
   xmlns:sodipodi="http://sodipodi.sourceforge.net/DTD/sodipodi-0.dtd"
   xmlns="http://www.w3.org/2000/svg"
   xmlns:svg="http://www.w3.org/2000/svg">
  <sodipodi:namedview
     id="namedview7"
     pagecolor="#ffffff"
     bordercolor="#666666"
     borderopacity="1.0"
     inkscape:pageshadow="2"
     inkscape:pageopacity="0.0"
     inkscape:pagecheckerboard="0"
     inkscape:document-units="px"
     showgrid="false"
     inkscape:zoom="0.93838246"
     inkscape:cx="246.70112"
     inkscape:cy="317.03491"
     inkscape:window-width="1920"
     inkscape:window-height="1016"
     inkscape:window-x="0"
     inkscape:window-y="32"
     inkscape:window-maximized="1"
     inkscape:current-layer="layer1" />
  <defs
     id="defs2" />
  <g
     inkscape:label="Layer 1"
     inkscape:groupmode="layer"
     id="layer1">
    <path
       id="path53"
       style="fill:#ffffff;fill-opacity:1;stroke-width:0.81521"
       d="M 91.003917,-3.3733333e-5 V 0.00304627 C 84.973248,14.785321 81.337532,24.455868 74.622749,38.798794 80.46356,41.750075 85.575458,46.44799 91.997584,53.98085 84.694893,48.205158 79.001966,44.717376 72.659303,42.925571 64.066077,60.852597 50.60308,86.388874 23.283306,135.46668 c 8.098915,-4.74989 53.886545,-16.70633 49.727921,-27.53339 -1.121963,-2.70325 -3.379262,-3.06248 -6.853753,-4.29703 v -6.879348 c 3.480873,-1.238794 5.73179,-1.593259 6.853753,-4.298614 1.124107,-2.709603 -0.21811,-4.554412 -1.804206,-7.89193 l 4.864826,-4.862212 c 3.353132,1.594292 5.186074,2.926098 7.892003,1.802235 h 0.0016 c 2.703807,-1.121729 3.060474,-3.37216 4.299518,-6.852302 h 6.880823 c 1.243313,3.497179 1.596244,5.732693 4.297931,6.852302 h 0.0016 c 2.712318,1.123863 4.570288,-0.222869 7.893598,-1.802235 l 4.86324,4.862212 c -1.59037,3.348162 -2.9246,5.186573 -1.80262,7.89193 v 0.0016 c 1.11772,2.696855 3.33881,3.04758 6.85374,4.297024 v 6.879358 c -22.745446,12.70836 30.40917,27.44397 41.49672,31.83042 -4.17674,-7.68809 -7.90555,-14.61916 -11.46538,-21.21921 -5.60791,-4.3456 -11.45751,-10.00058 -23.38937,-16.122978 8.20108,2.130578 14.07329,4.588758 18.65035,7.336298 C 106.34806,38.080997 103.41681,29.127615 91.003917,-3.3733333e-5 Z M 91.704579,91.682957 c -4.702905,0 -8.514641,3.812517 -8.514641,8.514433 0,4.70191 3.811736,8.51283 8.514641,8.51283 4.702911,0 8.516211,-3.81092 8.516211,-8.51283 0,-4.701916 -3.8133,-8.514433 -8.516211,-8.514433 z"
       sodipodi:nodetypes="cccccccccccccccccccccccccccccsssss"
       inkscape:export-filename="/home/adi1090x/0_Archcraft_Reborn/artworks/plymouth/5.png"
       inkscape:export-xdpi="86.649094"
       inkscape:export-ydpi="86.649094" />
  </g>
</svg>
